<svg width="300" height="300" viewBox="0 0 300 300" fill="none" xmlns="http://www.w3.org/2000/svg">
<circle cx="150" cy="150" r="147" stroke="#FFF9F9" stroke-width="6"/>
<circle cx="150" cy="150" r="147" stroke="#FFF9F9" stroke-width="6"/>
<path d="M76.456 202C72.52 202 69.496 200.944 67.384 198.832C65.272 196.72 64.216 193.696 64.216 189.76V112.72C64.216 108.784 65.272 105.76 67.384 103.648C69.496 101.536 72.52 100.48 76.456 100.48H126.28C130.408 100.48 133.528 101.344 135.64 103.072C137.752 104.8 138.808 107.296 138.808 110.56C138.808 117.472 134.632 120.928 126.28 120.928H89.992V140.224H123.4C131.752 140.224 135.928 143.632 135.928 150.448C135.928 153.712 134.872 156.208 132.76 157.936C130.648 159.664 127.528 160.528 123.4 160.528H89.992V181.552H126.28C134.632 181.552 138.808 185.008 138.808 191.92C138.808 195.184 137.752 197.68 135.64 199.408C133.528 201.136 130.408 202 126.28 202H76.456ZM198.519 203.296C188.151 203.296 179.127 201.184 171.447 196.96C163.863 192.64 158.007 186.592 153.879 178.816C149.751 170.944 147.687 161.728 147.687 151.168C147.687 140.608 149.751 131.44 153.879 123.664C158.007 115.792 163.863 109.744 171.447 105.52C179.127 101.296 188.151 99.184 198.519 99.184C208.887 99.184 217.863 101.296 225.447 105.52C233.127 109.744 238.983 115.792 243.015 123.664C247.143 131.44 249.207 140.608 249.207 151.168C249.207 161.728 247.143 170.944 243.015 178.816C238.887 186.592 232.983 192.64 225.303 196.96C217.719 201.184 208.791 203.296 198.519 203.296ZM198.519 182.992C206.199 182.992 212.199 180.304 216.519 174.928C220.839 169.456 222.999 161.536 222.999 151.168C222.999 140.8 220.791 132.928 216.375 127.552C212.055 122.176 206.103 119.488 198.519 119.488C190.839 119.488 184.839 122.176 180.519 127.552C176.199 132.832 174.039 140.704 174.039 151.168C174.039 161.632 176.199 169.552 180.519 174.928C184.839 180.304 190.839 182.992 198.519 182.992Z" fill="#FFF9F9"/>
<path d="M76.456 202C72.52 202 69.496 200.944 67.384 198.832C65.272 196.72 64.216 193.696 64.216 189.76V112.72C64.216 108.784 65.272 105.76 67.384 103.648C69.496 101.536 72.52 100.48 76.456 100.48H126.28C130.408 100.48 133.528 101.344 135.64 103.072C137.752 104.8 138.808 107.296 138.808 110.56C138.808 117.472 134.632 120.928 126.28 120.928H89.992V140.224H123.4C131.752 140.224 135.928 143.632 135.928 150.448C135.928 153.712 134.872 156.208 132.76 157.936C130.648 159.664 127.528 160.528 123.4 160.528H89.992V181.552H126.28C134.632 181.552 138.808 185.008 138.808 191.92C138.808 195.184 137.752 197.68 135.64 199.408C133.528 201.136 130.408 202 126.28 202H76.456ZM198.519 203.296C188.151 203.296 179.127 201.184 171.447 196.96C163.863 192.64 158.007 186.592 153.879 178.816C149.751 170.944 147.687 161.728 147.687 151.168C147.687 140.608 149.751 131.44 153.879 123.664C158.007 115.792 163.863 109.744 171.447 105.52C179.127 101.296 188.151 99.184 198.519 99.184C208.887 99.184 217.863 101.296 225.447 105.52C233.127 109.744 238.983 115.792 243.015 123.664C247.143 131.44 249.207 140.608 249.207 151.168C249.207 161.728 247.143 170.944 243.015 178.816C238.887 186.592 232.983 192.64 225.303 196.96C217.719 201.184 208.791 203.296 198.519 203.296ZM198.519 182.992C206.199 182.992 212.199 180.304 216.519 174.928C220.839 169.456 222.999 161.536 222.999 151.168C222.999 140.8 220.791 132.928 216.375 127.552C212.055 122.176 206.103 119.488 198.519 119.488C190.839 119.488 184.839 122.176 180.519 127.552C176.199 132.832 174.039 140.704 174.039 151.168C174.039 161.632 176.199 169.552 180.519 174.928C184.839 180.304 190.839 182.992 198.519 182.992Z" fill="#FFF9F9"/>
</svg>
