<svg width="200" height="200" viewBox="0 0 200 200" fill="none" xmlns="http://www.w3.org/2000/svg">
<rect width="200" height="200" fill="#4338CA" fill-opacity="0.79"/>
<path d="M51.304 120C48.68 120 46.664 119.296 45.256 117.888C43.848 116.48 43.144 114.464 43.144 111.84V60.48C43.144 57.856 43.848 55.84 45.256 54.432C46.664 53.024 48.68 52.32 51.304 52.32H84.52C87.272 52.32 89.352 52.896 90.76 54.048C92.168 55.2 92.872 56.864 92.872 59.04C92.872 63.648 90.088 65.952 84.52 65.952H60.328V78.816H82.6C88.168 78.816 90.952 81.088 90.952 85.632C90.952 87.808 90.248 89.472 88.84 90.624C87.432 91.776 85.352 92.352 82.6 92.352H60.328V106.368H84.52C90.088 106.368 92.872 108.672 92.872 113.28C92.872 115.456 92.168 117.12 90.76 118.272C89.352 119.424 87.272 120 84.52 120H51.304ZM132.679 120.864C125.767 120.864 119.751 119.456 114.631 116.64C109.575 113.76 105.671 109.728 102.919 104.544C100.167 99.296 98.791 93.152 98.791 86.112C98.791 79.072 100.167 72.96 102.919 67.776C105.671 62.528 109.575 58.496 114.631 55.68C119.751 52.864 125.767 51.456 132.679 51.456C139.591 51.456 145.575 52.864 150.631 55.68C155.751 58.496 159.655 62.528 162.343 67.776C165.095 72.96 166.471 79.072 166.471 86.112C166.471 93.152 165.095 99.296 162.343 104.544C159.591 109.728 155.655 113.76 150.535 116.64C145.479 119.456 139.527 120.864 132.679 120.864ZM132.679 107.328C137.799 107.328 141.799 105.536 144.679 101.952C147.559 98.304 148.999 93.024 148.999 86.112C148.999 79.2 147.527 73.952 144.583 70.368C141.703 66.784 137.735 64.992 132.679 64.992C127.559 64.992 123.559 66.784 120.679 70.368C117.799 73.888 116.359 79.136 116.359 86.112C116.359 93.088 117.799 98.368 120.679 101.952C123.559 105.536 127.559 107.328 132.679 107.328Z" fill="#FFF9F9"/>
<path d="M55.682 168C55.19 168 54.812 167.868 54.548 167.604C54.284 167.34 54.152 166.962 54.152 166.47V156.84C54.152 156.348 54.284 155.97 54.548 155.706C54.812 155.442 55.19 155.31 55.682 155.31H61.91C62.426 155.31 62.816 155.418 63.08 155.634C63.344 155.85 63.476 156.162 63.476 156.57C63.476 157.434 62.954 157.866 61.91 157.866H57.374V160.278H61.55C62.594 160.278 63.116 160.704 63.116 161.556C63.116 161.964 62.984 162.276 62.72 162.492C62.456 162.708 62.066 162.816 61.55 162.816H57.374V165.444H61.91C62.954 165.444 63.476 165.876 63.476 166.74C63.476 167.148 63.344 167.46 63.08 167.676C62.816 167.892 62.426 168 61.91 168H55.682ZM70.5982 159.864C70.7302 159.564 70.9102 159.342 71.1382 159.198C71.3782 159.054 71.6362 158.982 71.9122 158.982C72.3082 158.982 72.6562 159.114 72.9562 159.378C73.2682 159.642 73.4242 159.96 73.4242 160.332C73.4242 160.536 73.3762 160.734 73.2802 160.926L70.1302 167.19C69.9862 167.49 69.7762 167.724 69.5002 167.892C69.2362 168.048 68.9422 168.126 68.6182 168.126C68.2942 168.126 67.9942 168.048 67.7182 167.892C67.4422 167.724 67.2322 167.49 67.0882 167.19L63.9382 160.926C63.8422 160.71 63.7942 160.518 63.7942 160.35C63.7942 159.966 63.9562 159.642 64.2802 159.378C64.6162 159.102 65.0002 158.964 65.4322 158.964C65.7202 158.964 65.9842 159.042 66.2242 159.198C66.4762 159.342 66.6682 159.564 66.8002 159.864L68.7082 163.986L70.5982 159.864ZM78.4662 158.928C79.8342 158.928 80.8422 159.258 81.4902 159.918C82.1502 160.566 82.4802 161.556 82.4802 162.888V166.65C82.4802 167.106 82.3422 167.466 82.0662 167.73C81.8022 167.982 81.4302 168.108 80.9502 168.108C80.5302 168.108 80.1822 167.988 79.9062 167.748C79.6422 167.508 79.4982 167.184 79.4742 166.776C79.3062 167.208 79.0242 167.544 78.6282 167.784C78.2322 168.024 77.7582 168.144 77.2062 168.144C76.5942 168.144 76.0422 168.024 75.5502 167.784C75.0582 167.532 74.6682 167.19 74.3802 166.758C74.1042 166.314 73.9662 165.816 73.9662 165.264C73.9662 164.628 74.1282 164.124 74.4522 163.752C74.7882 163.368 75.3162 163.092 76.0362 162.924C76.7562 162.756 77.7282 162.672 78.9522 162.672H79.4382V162.456C79.4382 162.036 79.3422 161.736 79.1502 161.556C78.9582 161.364 78.6342 161.268 78.1782 161.268C77.6862 161.268 76.9662 161.436 76.0182 161.772C75.7422 161.868 75.5082 161.916 75.3162 161.916C75.0162 161.916 74.7762 161.808 74.5962 161.592C74.4162 161.376 74.3262 161.094 74.3262 160.746C74.3262 160.482 74.3802 160.266 74.4882 160.098C74.5962 159.93 74.7702 159.78 75.0102 159.648C75.4302 159.432 75.9582 159.258 76.5942 159.126C77.2302 158.994 77.8542 158.928 78.4662 158.928ZM77.9622 166.002C78.3942 166.002 78.7482 165.852 79.0242 165.552C79.3002 165.24 79.4382 164.844 79.4382 164.364V164.148H79.1502C78.3822 164.148 77.8362 164.22 77.5122 164.364C77.1882 164.496 77.0262 164.724 77.0262 165.048C77.0262 165.324 77.1102 165.552 77.2782 165.732C77.4582 165.912 77.6862 166.002 77.9622 166.002ZM85.8778 168.108C85.4218 168.108 85.0378 167.988 84.7258 167.748C84.4258 167.496 84.2758 167.124 84.2758 166.632V156.714C84.2758 156.222 84.4258 155.85 84.7258 155.598C85.0378 155.346 85.4218 155.22 85.8778 155.22C86.3338 155.22 86.7118 155.346 87.0118 155.598C87.3238 155.85 87.4798 156.222 87.4798 156.714V166.632C87.4798 167.124 87.3238 167.496 87.0118 167.748C86.7118 167.988 86.3338 168.108 85.8778 168.108ZM100.735 168.162C99.4387 168.162 98.3107 167.898 97.3507 167.37C96.4027 166.83 95.6707 166.074 95.1547 165.102C94.6387 164.118 94.3807 162.966 94.3807 161.646C94.3807 160.326 94.6387 159.18 95.1547 158.208C95.6707 157.224 96.4027 156.468 97.3507 155.94C98.3107 155.412 99.4387 155.148 100.735 155.148C102.031 155.148 103.153 155.412 104.101 155.94C105.061 156.468 105.793 157.224 106.297 158.208C106.813 159.18 107.071 160.326 107.071 161.646C107.071 162.966 106.813 164.118 106.297 165.102C105.781 166.074 105.043 166.83 104.083 167.37C103.135 167.898 102.019 168.162 100.735 168.162ZM100.735 165.624C101.695 165.624 102.445 165.288 102.985 164.616C103.525 163.932 103.795 162.942 103.795 161.646C103.795 160.35 103.519 159.366 102.967 158.694C102.427 158.022 101.683 157.686 100.735 157.686C99.7747 157.686 99.0247 158.022 98.4847 158.694C97.9447 159.354 97.6747 160.338 97.6747 161.646C97.6747 162.954 97.9447 163.944 98.4847 164.616C99.0247 165.288 99.7747 165.624 100.735 165.624ZM114.773 158.928C115.829 158.928 116.615 159.246 117.131 159.882C117.647 160.506 117.905 161.46 117.905 162.744V166.632C117.905 167.088 117.761 167.448 117.473 167.712C117.185 167.976 116.795 168.108 116.303 168.108C115.811 168.108 115.421 167.976 115.133 167.712C114.845 167.448 114.701 167.088 114.701 166.632V162.888C114.701 162.36 114.605 161.976 114.413 161.736C114.233 161.496 113.957 161.376 113.585 161.376C113.105 161.376 112.721 161.532 112.433 161.844C112.157 162.144 112.019 162.552 112.019 163.068V166.632C112.019 167.088 111.875 167.448 111.587 167.712C111.299 167.976 110.909 168.108 110.417 168.108C109.925 168.108 109.535 167.976 109.247 167.712C108.959 167.448 108.815 167.088 108.815 166.632V160.404C108.815 159.984 108.965 159.642 109.265 159.378C109.565 159.102 109.955 158.964 110.435 158.964C110.891 158.964 111.251 159.09 111.515 159.342C111.791 159.594 111.929 159.924 111.929 160.332C112.241 159.876 112.643 159.528 113.135 159.288C113.627 159.048 114.173 158.928 114.773 158.928ZM121.315 168.108C120.859 168.108 120.475 167.988 120.163 167.748C119.863 167.496 119.713 167.124 119.713 166.632V156.714C119.713 156.222 119.863 155.85 120.163 155.598C120.475 155.346 120.859 155.22 121.315 155.22C121.771 155.22 122.149 155.346 122.449 155.598C122.761 155.85 122.917 156.222 122.917 156.714V166.632C122.917 167.124 122.761 167.496 122.449 167.748C122.149 167.988 121.771 168.108 121.315 168.108ZM126.378 168.108C125.922 168.108 125.538 167.988 125.226 167.748C124.926 167.496 124.776 167.124 124.776 166.632V160.44C124.776 159.948 124.926 159.582 125.226 159.342C125.538 159.09 125.922 158.964 126.378 158.964C126.834 158.964 127.212 159.09 127.512 159.342C127.824 159.582 127.98 159.948 127.98 160.44V166.632C127.98 167.124 127.824 167.496 127.512 167.748C127.212 167.988 126.834 168.108 126.378 168.108ZM126.378 157.704C125.838 157.704 125.406 157.566 125.082 157.29C124.77 157.002 124.614 156.624 124.614 156.156C124.614 155.688 124.77 155.316 125.082 155.04C125.406 154.764 125.838 154.626 126.378 154.626C126.906 154.626 127.332 154.764 127.656 155.04C127.98 155.316 128.142 155.688 128.142 156.156C128.142 156.624 127.98 157.002 127.656 157.29C127.344 157.566 126.918 157.704 126.378 157.704ZM135.796 158.928C136.852 158.928 137.638 159.246 138.154 159.882C138.67 160.506 138.928 161.46 138.928 162.744V166.632C138.928 167.088 138.784 167.448 138.496 167.712C138.208 167.976 137.818 168.108 137.326 168.108C136.834 168.108 136.444 167.976 136.156 167.712C135.868 167.448 135.724 167.088 135.724 166.632V162.888C135.724 162.36 135.628 161.976 135.436 161.736C135.256 161.496 134.98 161.376 134.608 161.376C134.128 161.376 133.744 161.532 133.456 161.844C133.18 162.144 133.042 162.552 133.042 163.068V166.632C133.042 167.088 132.898 167.448 132.61 167.712C132.322 167.976 131.932 168.108 131.44 168.108C130.948 168.108 130.558 167.976 130.27 167.712C129.982 167.448 129.838 167.088 129.838 166.632V160.404C129.838 159.984 129.988 159.642 130.288 159.378C130.588 159.102 130.978 158.964 131.458 158.964C131.914 158.964 132.274 159.09 132.538 159.342C132.814 159.594 132.952 159.924 132.952 160.332C133.264 159.876 133.666 159.528 134.158 159.288C134.65 159.048 135.196 158.928 135.796 158.928ZM147.937 165.156C148.213 165.156 148.435 165.264 148.603 165.48C148.783 165.696 148.873 165.978 148.873 166.326C148.873 166.806 148.639 167.172 148.171 167.424C147.763 167.628 147.277 167.802 146.713 167.946C146.161 168.078 145.651 168.144 145.183 168.144C144.199 168.144 143.341 167.958 142.609 167.586C141.877 167.214 141.313 166.68 140.917 165.984C140.521 165.288 140.323 164.472 140.323 163.536C140.323 162.648 140.509 161.856 140.881 161.16C141.265 160.452 141.793 159.906 142.465 159.522C143.149 159.126 143.917 158.928 144.769 158.928C145.597 158.928 146.323 159.108 146.947 159.468C147.571 159.828 148.051 160.338 148.387 160.998C148.735 161.658 148.909 162.432 148.909 163.32C148.909 163.596 148.843 163.812 148.711 163.968C148.591 164.112 148.411 164.184 148.171 164.184H143.419C143.503 164.76 143.689 165.174 143.977 165.426C144.265 165.678 144.691 165.804 145.255 165.804C145.555 165.804 145.831 165.774 146.083 165.714C146.335 165.642 146.617 165.546 146.929 165.426C147.109 165.354 147.283 165.294 147.451 165.246C147.631 165.186 147.793 165.156 147.937 165.156ZM144.859 161.088C144.439 161.088 144.103 161.226 143.851 161.502C143.599 161.766 143.449 162.156 143.401 162.672H146.227C146.155 161.616 145.699 161.088 144.859 161.088Z" fill="#FFF9F9"/>
</svg>
